<svg width="1000" height="423" viewBox="0 0 1000 423" fill="none" xmlns="http://www.w3.org/2000/svg">
    <path
        d="M949.172 0H914.992H880.812H846.632H812.452H153.722H119.542H85.3617H51.1817H0V51.0221V85.2135V119.405V248.418V258.863V293.055V303.5V337.692V371.883V422.905H51.0051H85.1851H119.365H153.545H812.275H846.455H880.635H914.815H948.995H1000V372.06V337.868V303.677V293.231V259.04V248.594V119.582V85.3902V51.1988V0H949.172ZM997.527 16.5656H991.875V8.30489H983.572V2.6505H997.483V16.5656H997.527ZM989.225 51.0221V85.2135V119.405V248.418V258.863V293.055V303.5V337.692V371.883V387.123H983.572V371.883V337.692V303.5V293.055V258.863V248.418V119.405V85.2135V51.0221V35.7817H989.225V51.0221ZM980.967 51.0221V85.2135V119.405V248.418V258.863V293.055V303.5V337.692V371.883V387.123H972.665V395.428H964.363V403.733H949.127H914.947H880.767H846.587H812.407H153.678H119.498H85.3175H51.1375H35.7698V395.428H27.4677V387.123H19.2097V371.883V337.692V303.5V293.055V258.863V248.418V119.405V85.2135V51.0221V35.7817H27.5118V27.4768H35.7698V19.2161H51.0051H85.1851H119.365H153.545H812.275H846.455H880.635H914.815H948.995H964.23V27.521H972.532V35.7817H980.834V51.0221H980.967ZM989.225 403.866H983.572V398.211H989.225V403.866ZM975.314 406.516H980.967V412.17H975.314V406.516ZM983.616 406.516H989.269V412.17H983.616V406.516ZM980.967 403.866H975.314V398.211H980.967V403.866ZM972.665 403.866H967.012V398.211H972.665V403.866ZM975.314 395.561V389.906H980.967V395.561H975.314ZM35.7698 406.516H51.0051H85.1851H119.365H153.545H812.275H846.455H880.635H914.815H948.995H964.23V412.17H948.995H914.815H880.635H846.455H812.275H153.545H119.365H85.1851H51.0051H35.7698V406.516ZM10.9517 406.516H16.6042V412.17H10.9517V406.516ZM10.9517 403.866V398.211H16.6042V403.866H10.9517ZM19.2097 406.516H24.8622V412.17H19.2097V406.516ZM19.2097 403.866V398.211H24.8622V403.866H19.2097ZM24.818 395.561H19.2097V389.906H24.8622V395.561H24.818ZM27.4677 398.211H33.1202V403.866H27.4677V398.211ZM10.9517 372.06V337.868V303.677V293.231V259.04V248.594V119.582V85.3902V51.1988V35.7817H16.6042V51.0221V85.2135V119.405V248.418V258.863V293.055V303.5V337.692V371.883V387.123H10.9517V372.06ZM10.9517 19.2161H16.6042V24.8705H10.9517V19.2161ZM24.818 16.5656H19.2097V10.9554H24.8622V16.5656H24.818ZM16.5601 16.5656H10.9517V10.9554H16.6042V16.5656H16.5601ZM19.2097 19.2161H24.8622V24.8705H19.2097V19.2161ZM27.4677 19.2161H33.1202V24.8705H27.4677V19.2161ZM24.818 27.4768V33.1312H19.2097V27.4768H24.818ZM964.407 16.5656H949.172H914.992H880.812H846.632H812.452H153.722H119.542H85.3617H51.1817H35.7698V10.9554H51.0051H85.1851H119.365H153.545H812.275H846.455H880.635H914.815H948.995H964.23V16.5656H964.407ZM967.056 19.2161H972.709V24.8705H967.056V19.2161ZM975.314 33.1312V27.4768H980.967V33.1312H975.314ZM975.314 24.8263V19.2161H980.967V24.8705H975.314V24.8263ZM975.314 16.5656V10.9554H980.967V16.6098H975.314V16.5656ZM983.616 19.2161H989.269V24.8705H983.616V19.2161ZM983.616 16.5656V10.9554H989.269V16.6098H983.616V16.5656ZM85.1851 2.6505H119.365H153.545H812.275H846.455H880.635H914.815H948.995H980.79V8.30489H972.488V16.6098H966.836V8.30489H948.951H914.771H880.591H846.411H812.231H153.501H119.321H85.1409H50.9609H33.1202V16.6098H27.4677V8.30489H19.2097V2.6505H51.0051H85.1851ZM16.5601 2.6505V8.30489H8.30212V16.6098H2.64961V2.6505H16.5601ZM2.64961 337.824V303.632V293.187V258.996V248.551V119.537V85.346V51.1546V19.3486H8.30212V27.6535H16.6042V33.1312H8.30212V51.0221V85.2135V119.405V248.418V258.863V293.055V303.5V337.692V371.883V389.774H16.6042V395.428H8.30212V403.733H2.64961V371.927V337.824ZM2.64961 406.516H8.30212V414.821H16.6042V420.475H2.64961V406.516ZM914.947 420.431H880.767H846.587H812.407H153.678H119.498H85.3175H51.1375H19.3422V414.777H27.6443V406.472H33.1202V414.777H51.0051H85.1851H119.365H153.545H812.275H846.455H880.635H914.815H948.995H966.88V406.472H972.532V414.777H980.834V420.431H949.039H914.947ZM983.616 420.431V414.777H991.919V406.472H997.571V420.387H983.616V420.431ZM997.527 85.2135V119.405V248.418V258.863V293.055V303.5V337.692V371.883V403.689H991.875V395.384H983.572V389.729H991.875V371.839V337.647V303.456V293.01V258.819V248.374V119.361V85.1693V50.9779V33.1312H983.572V27.4768H991.875V19.2161H997.527V51.0221V85.2135Z"
        fill="#EDE7D1" />
</svg>